{
  "asset": {
    "generator": "glTF-Transform v3.4.8",
    "version": "2.0",
    "extras": {
      "author": "ATD-London (https://sketchfab.com/ATD-London)",
      "license": "CC-BY-4.0 (http://creativecommons.org/licenses/by/4.0/)",
      "source": "https://sketchfab.com/3d-models/park-heights-woking-4dff14e50bcc48e2a9b7d74dd76d61dd",
      "title": "Park Heights, Woking"
    }
  },
  "accessors": [
    {
      "type": "VEC3",
      "componentType": 5126,
      "count": 4494,
      "max": [
        29.306549072265625,
        35.89101028442383,
        75.70538330078125
      ],
      "min": [
        -20.7763671875,
        -14.275415420532227,
        0.16404199600219727
      ],
      "bufferView": 0,
      "byteOffset": 0
    },
    {
      "type": "VEC3",
      "componentType": 5126,
      "count": 4494,
      "bufferView": 0,
      "byteOffset": 12
    },
    {
      "type": "VEC2",
      "componentType": 5126,
      "count": 4494,
      "bufferView": 0,
      "byteOffset": 24
    },
    {
      "type": "VEC3",
      "componentType": 5126,
      "count": 1536,
      "max": [
        11.32541275024414,
        35.544376373291016,
        72.70341491699219
      ],
      "min": [
        -2.795229434967041,
        34.43309783935547,
        0.16404199600219727
      ],
      "bufferView": 1,
      "byteOffset": 0
    },
    {
      "type": "VEC3",
      "componentType": 5126,
      "count": 1536,
      "bufferView": 1,
      "byteOffset": 12
    },
    {
      "type": "VEC2",
      "componentType": 5126,
      "count": 1536,
      "bufferView": 1,
      "byteOffset": 24
    },
    {
      "type": "VEC3",
      "componentType": 5126,
      "count": 524,
      "max": [
        78.56393432617188,
        24.90706443786621,
        57.90682601928711
      ],
      "min": [
        -44.62657165527344,
        -98.89635467529297,
        -5.5304792829483e-15
      ],
      "bufferView": 2,
      "byteOffset": 0
    },
    {
      "type": "VEC3",
      "componentType": 5126,
      "count": 524,
      "bufferView": 2,
      "byteOffset": 12
    },
    {
      "type": "VEC2",
      "componentType": 5126,
      "count": 524,
      "bufferView": 2,
      "byteOffset": 24
    },
    {
      "type": "VEC3",
      "componentType": 5126,
      "count": 15048,
      "max": [
        78.56393432617188,
        43.64376449584961,
        80.239501953125
      ],
      "min": [
        -44.62657165527344,
        -98.89635467529297,
        -0.4921259880065918
      ],
      "bufferView": 3,
      "byteOffset": 0
    },
    {
      "type": "VEC3",
      "componentType": 5126,
      "count": 15048,
      "bufferView": 3,
      "byteOffset": 12
    },
    {
      "type": "VEC2",
      "componentType": 5126,
      "count": 15048,
      "bufferView": 3,
      "byteOffset": 24
    },
    {
      "type": "VEC3",
      "componentType": 5126,
      "count": 10683,
      "max": [
        78.78323364257812,
        35.82816696166992,
        80.38057708740234
      ],
      "min": [
        -44.83061981201172,
        -99.11874389648438,
        -1.4934579994126812e-14
      ],
      "bufferView": 4,
      "byteOffset": 0
    },
    {
      "type": "VEC3",
      "componentType": 5126,
      "count": 10683,
      "bufferView": 4,
      "byteOffset": 12
    },
    {
      "type": "VEC2",
      "componentType": 5126,
      "count": 10683,
      "bufferView": 4,
      "byteOffset": 24
    },
    {
      "type": "VEC3",
      "componentType": 5126,
      "count": 14745,
      "max": [
        77.75946807861328,
        43.277191162109375,
        72.70341491699219
      ],
      "min": [
        -44.046630859375,
        -97.53002166748047,
        7.882593639233978e-15
      ],
      "bufferView": 5,
      "byteOffset": 0
    },
    {
      "type": "VEC3",
      "componentType": 5126,
      "count": 14745,
      "bufferView": 5,
      "byteOffset": 12
    },
    {
      "type": "VEC2",
      "componentType": 5126,
      "count": 14745,
      "bufferView": 5,
      "byteOffset": 24
    },
    {
      "type": "VEC3",
      "componentType": 5126,
      "count": 52816,
      "max": [
        77.81209564208984,
        43.31616973876953,
        75.70538330078125
      ],
      "min": [
        -44.11260986328125,
        -97.64851379394531,
        -1.9899503911346983e-7
      ],
      "bufferView": 6,
      "byteOffset": 0
    },
    {
      "type": "VEC3",
      "componentType": 5126,
      "count": 52816,
      "bufferView": 6,
      "byteOffset": 12
    },
    {
      "type": "VEC2",
      "componentType": 5126,
      "count": 52816,
      "bufferView": 6,
      "byteOffset": 24
    },
    {
      "type": "VEC3",
      "componentType": 5126,
      "count": 120,
      "max": [
        50.630828857421875,
        -25.17141342163086,
        7.162073135375977
      ],
      "min": [
        43.50009536743164,
        -40.98326110839844,
        0.25262466073036194
      ],
      "bufferView": 7,
      "byteOffset": 0
    },
    {
      "type": "VEC3",
      "componentType": 5126,
      "count": 120,
      "bufferView": 7,
      "byteOffset": 12
    },
    {
      "type": "VEC2",
      "componentType": 5126,
      "count": 120,
      "bufferView": 7,
      "byteOffset": 24
    },
    {
      "type": "VEC3",
      "componentType": 5126,
      "count": 3756,
      "max": [
        26.17473602294922,
        35.84149169921875,
        80.38057708740234
      ],
      "min": [
        -17.64455223083496,
        17.833534240722656,
        6.975720185948414e-14
      ],
      "bufferView": 8,
      "byteOffset": 0
    },
    {
      "type": "VEC3",
      "componentType": 5126,
      "count": 3756,
      "bufferView": 8,
      "byteOffset": 12
    },
    {
      "type": "VEC2",
      "componentType": 5126,
      "count": 3756,
      "bufferView": 8,
      "byteOffset": 24
    },
    {
      "type": "VEC3",
      "componentType": 5126,
      "count": 212,
      "max": [
        29.809648513793945,
        35.404396057128906,
        76.3615493774414
      ],
      "min": [
        -21.118257522583008,
        -28.576114654541016,
        75.70538330078125
      ],
      "bufferView": 9,
      "byteOffset": 0
    },
    {
      "type": "VEC3",
      "componentType": 5126,
      "count": 212,
      "bufferView": 9,
      "byteOffset": 12
    },
    {
      "type": "VEC2",
      "componentType": 5126,
      "count": 212,
      "bufferView": 9,
      "byteOffset": 24
    },
    {
      "type": "SCALAR",
      "componentType": 5125,
      "count": 6780,
      "bufferView": 10,
      "byteOffset": 0
    },
    {
      "type": "SCALAR",
      "componentType": 5125,
      "count": 3072,
      "bufferView": 10,
      "byteOffset": 27120
    },
    {
      "type": "SCALAR",
      "componentType": 5125,
      "count": 1146,
      "bufferView": 10,
      "byteOffset": 39408
    },
    {
      "type": "SCALAR",
      "componentType": 5125,
      "count": 44550,
      "bufferView": 10,
      "byteOffset": 43992
    },
    {
      "type": "SCALAR",
      "componentType": 5125,
      "count": 20874,
      "bufferView": 10,
      "byteOffset": 222192
    },
    {
      "type": "SCALAR",
      "componentType": 5125,
      "count": 23826,
      "bufferView": 10,
      "byteOffset": 305688
    },
    {
      "type": "SCALAR",
      "componentType": 5125,
      "count": 89310,
      "bufferView": 10,
      "byteOffset": 400992
    },
    {
      "type": "SCALAR",
      "componentType": 5125,
      "count": 180,
      "bufferView": 10,
      "byteOffset": 758232
    },
    {
      "type": "SCALAR",
      "componentType": 5125,
      "count": 6312,
      "bufferView": 10,
      "byteOffset": 758952
    },
    {
      "type": "SCALAR",
      "componentType": 5125,
      "count": 498,
      "bufferView": 10,
      "byteOffset": 784200
    }
  ],
  "bufferViews": [
    {
      "buffer": 0,
      "byteOffset": 0,
      "byteLength": 143808,
      "byteStride": 32,
      "target": 34962
    },
    {
      "buffer": 0,
      "byteOffset": 143808,
      "byteLength": 49152,
      "byteStride": 32,
      "target": 34962
    },
    {
      "buffer": 0,
      "byteOffset": 192960,
      "byteLength": 16768,
      "byteStride": 32,
      "target": 34962
    },
    {
      "buffer": 0,
      "byteOffset": 209728,
      "byteLength": 481536,
      "byteStride": 32,
      "target": 34962
    },
    {
      "buffer": 0,
      "byteOffset": 691264,
      "byteLength": 341856,
      "byteStride": 32,
      "target": 34962
    },
    {
      "buffer": 0,
      "byteOffset": 1033120,
      "byteLength": 471840,
      "byteStride": 32,
      "target": 34962
    },
    {
      "buffer": 0,
      "byteOffset": 1504960,
      "byteLength": 1690112,
      "byteStride": 32,
      "target": 34962
    },
    {
      "buffer": 0,
      "byteOffset": 3195072,
      "byteLength": 3840,
      "byteStride": 32,
      "target": 34962
    },
    {
      "buffer": 0,
      "byteOffset": 3198912,
      "byteLength": 120192,
      "byteStride": 32,
      "target": 34962
    },
    {
      "buffer": 0,
      "byteOffset": 3319104,
      "byteLength": 6784,
      "byteStride": 32,
      "target": 34962
    },
    {
      "buffer": 0,
      "byteOffset": 3325888,
      "byteLength": 786192,
      "target": 34963
    }
  ],
  "samplers": [
    {
      "magFilter": 9729,
      "minFilter": 9987,
      "wrapS": 10497,
      "wrapT": 10497
    }
  ],
  "textures": [
    {
      "source": 0,
      "sampler": 0
    },
    {
      "source": 1,
      "sampler": 0
    }
  ],
  "images": [
    {
      "mimeType": "image/png",
      "uri": "textures/Brick_Common_diffuse.png"
    },
    {
      "mimeType": "image/png",
      "uri": "textures/Metal_-_Aluminum_emissive.png"
    }
  ],
  "buffers": [
    {
      "uri": "scene.bin",
      "byteLength": 4112080
    }
  ],
  "materials": [
    {
      "name": "00-Material_01",
      "doubleSided": true,
      "pbrMetallicRoughness": {
        "baseColorFactor": [
          0.545098,
          0.545098,
          0.545098,
          1
        ],
        "metallicFactor": 0
      },
      "extensions": {
        "KHR_materials_ior": {
          "ior": 1000
        },
        "KHR_materials_specular": {
          "specularColorFactor": [
            0,
            0,
            0
          ]
        }
      }
    },
    {
      "name": "Aluminum",
      "doubleSided": true,
      "pbrMetallicRoughness": {
        "baseColorFactor": [
          0.6,
          0.6,
          0.6,
          1
        ],
        "metallicFactor": 0
      },
      "extensions": {
        "KHR_materials_ior": {
          "ior": 1000
        },
        "KHR_materials_specular": {
          "specularColorFactor": [
            0,
            0,
            0
          ]
        }
      }
    },
    {
      "name": "Brick_Common",
      "doubleSided": true,
      "pbrMetallicRoughness": {
        "metallicFactor": 0,
        "baseColorTexture": {
          "index": 0
        }
      },
      "emissiveTexture": {
        "index": 0
      },
      "extensions": {
        "KHR_materials_ior": {
          "ior": 1000
        },
        "KHR_materials_specular": {}
      }
    },
    {
      "name": "Default",
      "doubleSided": true,
      "pbrMetallicRoughness": {
        "baseColorFactor": [
          0.16111610572391852,
          0.12967465899129177,
          0.12967465899129177,
          1
        ],
        "metallicFactor": 0
      },
      "extensions": {
        "KHR_materials_ior": {
          "ior": 1000
        },
        "KHR_materials_specular": {
          "specularColorFactor": [
            0,
            0,
            0
          ]
        }
      }
    },
    {
      "name": "Default_Wall",
      "doubleSided": true,
      "pbrMetallicRoughness": {
        "baseColorFactor": [
          0.8373390532284241,
          0.8373390532284241,
          0.8373390532284241,
          1
        ],
        "metallicFactor": 0
      },
      "extensions": {
        "KHR_materials_ior": {
          "ior": 1000
        },
        "KHR_materials_specular": {
          "specularColorFactor": [
            0,
            0,
            0
          ]
        }
      }
    },
    {
      "name": "Glass",
      "alphaMode": "BLEND",
      "doubleSided": true,
      "pbrMetallicRoughness": {
        "baseColorFactor": [
          0.09234009977378385,
          0.2604646758215929,
          0.2953043464009595,
          0.2
        ],
        "metallicFactor": 0
      },
      "extensions": {
        "KHR_materials_ior": {
          "ior": 1000
        },
        "KHR_materials_specular": {
          "specularColorFactor": [
            0,
            0,
            0
          ]
        }
      }
    },
    {
      "name": "Metal_-_Aluminum",
      "doubleSided": true,
      "pbrMetallicRoughness": {
        "baseColorFactor": [
          0.11632695176529188,
          0.12256760431052603,
          0.11584505741017981,
          1
        ],
        "metallicFactor": 0
      },
      "emissiveTexture": {
        "index": 1
      },
      "extensions": {
        "KHR_materials_ior": {
          "ior": 1000
        },
        "KHR_materials_specular": {
          "specularColorFactor": [
            0,
            0,
            0
          ]
        }
      }
    },
    {
      "name": "Metal_-_Aluminum-Finsh",
      "doubleSided": true,
      "pbrMetallicRoughness": {
        "metallicFactor": 0,
        "baseColorTexture": {
          "index": 1
        }
      },
      "emissiveTexture": {
        "index": 1
      },
      "extensions": {
        "KHR_materials_ior": {
          "ior": 1000
        },
        "KHR_materials_specular": {
          "specularColorFactor": [
            0,
            0,
            0
          ]
        }
      }
    },
    {
      "name": "Metal_-_Aluminum_Ext",
      "doubleSided": true,
      "pbrMetallicRoughness": {
        "baseColorFactor": [
          0.2873652189445176,
          0.3206165176906652,
          0.29136987866780845,
          1
        ],
        "metallicFactor": 0
      },
      "emissiveTexture": {
        "index": 1
      },
      "extensions": {
        "KHR_materials_ior": {
          "ior": 1000
        },
        "KHR_materials_specular": {
          "specularColorFactor": [
            0,
            0,
            0
          ]
        }
      }
    },
    {
      "name": "Paint_-_White_Lining",
      "doubleSided": true,
      "pbrMetallicRoughness": {
        "baseColorFactor": [
          0.94902,
          0.94902,
          1,
          1
        ],
        "metallicFactor": 0
      },
      "extensions": {
        "KHR_materials_ior": {
          "ior": 1000
        },
        "KHR_materials_specular": {
          "specularColorFactor": [
            0,
            0,
            0
          ]
        }
      }
    }
  ],
  "meshes": [
    {
      "name": "Object_0",
      "primitives": [
        {
          "attributes": {
            "NORMAL": 1,
            "POSITION": 0,
            "TEXCOORD_0": 2
          },
          "mode": 4,
          "material": 0,
          "indices": 30
        }
      ]
    },
    {
      "name": "Object_1",
      "primitives": [
        {
          "attributes": {
            "NORMAL": 4,
            "POSITION": 3,
            "TEXCOORD_0": 5
          },
          "mode": 4,
          "material": 1,
          "indices": 31
        }
      ]
    },
    {
      "name": "Object_2",
      "primitives": [
        {
          "attributes": {
            "NORMAL": 7,
            "POSITION": 6,
            "TEXCOORD_0": 8
          },
          "mode": 4,
          "material": 2,
          "indices": 32
        }
      ]
    },
    {
      "name": "Object_3",
      "primitives": [
        {
          "attributes": {
            "NORMAL": 10,
            "POSITION": 9,
            "TEXCOORD_0": 11
          },
          "mode": 4,
          "material": 3,
          "indices": 33
        }
      ]
    },
    {
      "name": "Object_4",
      "primitives": [
        {
          "attributes": {
            "NORMAL": 13,
            "POSITION": 12,
            "TEXCOORD_0": 14
          },
          "mode": 4,
          "material": 4,
          "indices": 34
        }
      ]
    },
    {
      "name": "Object_5",
      "primitives": [
        {
          "attributes": {
            "NORMAL": 16,
            "POSITION": 15,
            "TEXCOORD_0": 17
          },
          "mode": 4,
          "material": 5,
          "indices": 35
        }
      ]
    },
    {
      "name": "Object_6",
      "primitives": [
        {
          "attributes": {
            "NORMAL": 19,
            "POSITION": 18,
            "TEXCOORD_0": 20
          },
          "mode": 4,
          "material": 6,
          "indices": 36
        }
      ]
    },
    {
      "name": "Object_7",
      "primitives": [
        {
          "attributes": {
            "NORMAL": 22,
            "POSITION": 21,
            "TEXCOORD_0": 23
          },
          "mode": 4,
          "material": 7,
          "indices": 37
        }
      ]
    },
    {
      "name": "Object_8",
      "primitives": [
        {
          "attributes": {
            "NORMAL": 25,
            "POSITION": 24,
            "TEXCOORD_0": 26
          },
          "mode": 4,
          "material": 8,
          "indices": 38
        }
      ]
    },
    {
      "name": "Object_9",
      "primitives": [
        {
          "attributes": {
            "NORMAL": 28,
            "POSITION": 27,
            "TEXCOORD_0": 29
          },
          "mode": 4,
          "material": 9,
          "indices": 39
        }
      ]
    }
  ],
  "nodes": [
    {
      "name": "Sketchfab_model",
      "rotation": [
        -0.7071067811865475,
        0,
        0,
        0.7071067811865476
      ],
      "children": [
        1
      ]
    },
    {
      "name": "Block M_Arch_2015.obj.cleaner.materialmerger.gles",
      "children": [
        2,
        3,
        4,
        5,
        6,
        7,
        8,
        9,
        10,
        11
      ]
    },
    {
      "name": "Object_2",
      "mesh": 0
    },
    {
      "name": "Object_3",
      "mesh": 1
    },
    {
      "name": "Object_4",
      "mesh": 2
    },
    {
      "name": "Object_5",
      "mesh": 3
    },
    {
      "name": "Object_6",
      "mesh": 4
    },
    {
      "name": "Object_7",
      "mesh": 5
    },
    {
      "name": "Object_8",
      "mesh": 6
    },
    {
      "name": "Object_9",
      "mesh": 7
    },
    {
      "name": "Object_10",
      "mesh": 8
    },
    {
      "name": "Object_11",
      "mesh": 9
    }
  ],
  "scenes": [
    {
      "name": "Sketchfab_Scene",
      "nodes": [
        0
      ]
    }
  ],
  "scene": 0,
  "extensionsUsed": [
    "KHR_materials_ior",
    "KHR_materials_specular"
  ]
}